<svg xmlns="http://www.w3.org/2000/svg" width="73" height="27" viewBox="0 0 73 27">
    <g fill="none" fill-rule="nonzero">
        <path fill="#FFF" d="M5.69 25.725H.977V.035H5.69V15.59l4.712-6.182h5.524l-5.929 7.6 6.587 8.716h-5.523L5.69 18.428zM23.07 4.544a2.725 2.725 0 0 1-2.736 2.736 2.725 2.725 0 0 1-2.736-2.736 2.725 2.725 0 0 1 2.736-2.736 2.725 2.725 0 0 1 2.736 2.736M37.31 17.668c0-1.317-.356-2.381-1.065-3.192-.71-.81-1.621-1.216-2.787-1.216-1.368 0-2.381.507-3.04 1.47v6.283c.71.608 1.672.912 2.888.912 1.267 0 2.28-.406 2.99-1.166.658-.81 1.013-1.824 1.013-3.09m-4.358 8.41c-3.192 0-5.624-.911-7.246-2.735V.034h4.713v9.932c1.115-.608 2.432-.912 3.85-.912 2.332 0 4.257.81 5.727 2.382 1.47 1.57 2.23 3.648 2.23 6.13 0 2.585-.811 4.663-2.433 6.183-1.621 1.57-3.902 2.33-6.84 2.33M52.865 9.155c.305 0 .66.051 1.014.102v4.053a4.882 4.882 0 0 0-1.368-.202c-1.47 0-2.585.659-3.345 1.976v10.641h-4.712V9.41h4.712v1.47c1.115-1.166 2.331-1.724 3.7-1.724"/>
        <path fill="#9ECC3B" d="M61.378 4.544a2.725 2.725 0 0 1-2.736 2.736 2.725 2.725 0 0 1-2.736-2.736 2.725 2.725 0 0 1 2.736-2.736 2.725 2.725 0 0 1 2.736 2.736"/>
        <path fill="#FFF" d="M64.013 4.544h4.915V9.46h3.244v3.649h-3.244v6.688c0 .71.203 1.318.609 1.723.405.456.912.66 1.57.66.406 0 .76-.102 1.065-.254v3.85c-.507.254-1.166.355-2.027.355-1.875 0-3.395-.557-4.46-1.722-1.114-1.115-1.672-2.686-1.672-4.662V4.544zM56.311 9.409h4.712v16.316h-4.712zM18.003 9.409h4.712v16.316h-4.712z"/>
    </g>
</svg>
