<svg  viewBox="0 0 150 93" fill="none" xmlns="http://www.w3.org/2000/svg">
<path d="M72.917 6.79369C72.917 6.79369 88.0136 -3.08522 88.6318 4.33324C89.25 11.7517 85.3058 6.32386 82.4126 6.06421C79.5071 5.80457 72.917 6.79369 72.917 6.79369Z" fill="white"/>
<path fill-rule="evenodd" clip-rule="evenodd" d="M67.4316 81.5427V78.221C67.4316 72.0244 72.4551 67.001 78.6622 66.9863L80.2366 66.9863H81.988V70.308C81.988 76.5138 76.9545 81.5427 70.7533 81.5427H67.4316ZM78.483 70.4918C78.3867 74.6164 75.0584 77.9417 70.9367 78.0377C71.0327 73.9197 74.3555 70.5971 78.483 70.4918Z" fill="#F16056"/>
<path fill-rule="evenodd" clip-rule="evenodd" d="M82.1215 13.3306C80.8515 8.71793 76.9297 4.87316 72.3034 3.96242C68.435 3.20639 64.7316 4.46965 61.2155 7.36388C58.4558 9.63539 55.8842 12.8251 53.2694 16.9364C51.9024 19.0859 51.0621 20.5512 48.9456 24.3667C47.4606 27.0436 46.8121 28.1232 46.3595 28.6271C46.1785 28.8266 46.1091 28.9025 46.0319 28.9863C45.8217 29.2148 45.5842 29.4692 45.3156 29.7528C44.5732 30.5364 43.7159 31.4128 42.7421 32.3745C40.0165 35.0662 36.8745 37.9401 33.3375 40.9011C24.3707 48.4427 14.2619 55.3665 3.29182 60.9885L1.57767 61.821C-0.0658857 62.6193 0.457742 65.0854 2.28388 65.1469L15.4817 65.5918L16.137 65.6165C17.0687 65.6517 17.5039 65.6724 18.0373 65.7126C24.4553 66.1507 30.838 67.6707 36.9811 70.1938C37.0533 70.2238 37.1092 70.2464 37.233 70.2959C37.4548 70.386 37.4712 70.3925 37.4877 70.3988C42.7825 72.4197 50.241 72.718 56.9723 71.1433C64.6147 69.3554 70.5691 65.4099 73.2569 59.6212C74.5169 56.9077 75.1313 54.0161 75.2252 50.8353C75.3155 47.7765 75.0122 45.1743 74.1691 40.2367C73.478 36.189 73.2847 34.8684 73.1846 33.04C73.0751 31.0418 73.2248 29.4007 73.6757 27.9943C76.0455 26.9849 77.955 25.6885 79.3873 24.1849C79.423 24.1805 79.4588 24.175 79.4947 24.1683L88.3721 22.5115C89.8125 22.2427 90.3057 20.4294 89.1999 19.4681L82.2884 13.4591C82.2347 13.4124 82.1789 13.3696 82.1215 13.3306ZM81.9251 20.1514C82.1519 19.5233 82.3182 18.8776 82.4231 18.2178L84.1661 19.7332L81.9251 20.1514ZM71.6693 25.0284C77.3344 22.8461 79.6378 19.1607 78.9284 15.0809C78.2842 11.3758 75.1872 8.10083 71.628 7.39957C66.5063 6.39938 61.5025 10.5184 56.2252 18.8162C54.9091 20.8856 54.0902 22.3136 52.0087 26.0659C50.3403 29.0736 49.6807 30.1715 48.8352 31.1117C48.7656 31.1882 48.6915 31.2692 48.6094 31.3584C48.388 31.599 48.139 31.8658 47.8585 32.1619C47.0899 32.9732 46.2054 33.8774 45.2035 34.8668C42.4117 37.6239 39.1993 40.5622 35.5891 43.5845C27.5875 50.3143 18.6928 56.5639 9.08633 61.8714L15.6067 62.0911L16.2691 62.1161C17.2437 62.1529 17.71 62.1751 18.2884 62.2188C25.0751 62.682 31.8259 64.2897 38.3201 66.9569C38.3799 66.9818 38.4259 67.0004 38.5339 67.0436C38.6426 67.0871 38.699 67.1098 38.76 67.135C43.3671 68.8858 50.1047 69.1524 56.1744 67.7325C62.8605 66.1683 67.9078 62.8238 70.0798 58.146C71.1273 55.8901 71.6433 53.4619 71.7239 50.7319C71.8052 47.9766 71.5214 45.5422 70.7162 40.8263C70 36.6315 69.7973 35.2468 69.6869 33.2316C69.5335 30.4304 69.8167 28.0898 70.6796 25.9955C70.8628 25.551 71.2206 25.2012 71.6693 25.0284Z" fill="white"/>
<path d="M30.5946 92.658H33.9162V89.3363C33.9162 83.1351 28.8873 78.1016 22.6815 78.1016H19.3599L19.3599 81.4356C19.3599 87.6352 24.3872 92.658 30.5946 92.658Z" fill="#F16056"/>
<path fill-rule="evenodd" clip-rule="evenodd" d="M2.37886 65.2464C0.503681 65.2851 -0.112177 62.7478 1.57212 61.9226L3.3588 61.0472C16.368 53.4904 25.1353 47.8258 32.0545 42.3728C39.5404 36.4731 44.9246 30.7301 49.0568 24.1825C49.9082 22.8334 51.9728 23.2322 52.2606 24.8012L54.855 38.9471C56.347 46.5457 52.3397 54.1785 45.1876 57.2251C45.146 57.2442 45.1035 57.2622 44.9304 57.3325C44.8328 57.3736 44.7864 57.3929 44.722 57.4187C43.8239 57.7779 42.8046 57.3411 42.4454 56.443C42.0861 55.5449 42.523 54.5256 43.4211 54.1664C43.4597 54.1509 43.4926 54.1372 43.5711 54.1042C43.6506 54.0707 43.6961 54.0517 43.745 54.0319C43.7568 54.0263 43.7687 54.0207 43.8881 53.9692C49.4531 51.5849 52.5932 45.586 51.4117 39.59L49.5854 29.6325C45.5979 35.0909 40.6317 40.0729 34.2226 45.1239C27.9358 50.0786 20.2168 55.1654 9.3562 61.5923C19.3384 61.2714 29.1824 59.4046 38.5362 56.0598C39.4469 55.7341 40.4493 56.2084 40.775 57.1192C41.1007 58.03 40.6264 59.0324 39.7156 59.3581C29.6738 62.949 19.0882 64.8964 8.36386 65.1227L2.37886 65.2464Z" fill="white"/>
<path fill-rule="evenodd" clip-rule="evenodd" d="M66.2402 15.1889C66.2402 12.9373 68.0691 11.1085 70.3206 11.1085C72.5722 11.1085 74.401 12.9373 74.401 15.1889C74.401 17.4405 72.5722 19.2693 70.3206 19.2693C68.0691 19.2693 66.2402 17.4405 66.2402 15.1889ZM71.7546 15.1889C71.7546 14.3989 71.1106 13.7549 70.3206 13.7549C69.5306 13.7549 68.8867 14.3989 68.8867 15.1889C68.8867 15.9789 69.5306 16.6229 70.3206 16.6229C71.1106 16.6229 71.7546 15.9789 71.7546 15.1889Z" fill="white"/>
<path d="M52.6976 71.0128C52.6976 70.0456 51.9135 69.2614 50.9462 69.2614C49.979 69.2614 49.1948 70.0456 49.1948 71.0128V84.6504C49.1948 85.6177 49.979 86.4019 50.9462 86.4019C51.9135 86.4019 52.6976 85.6177 52.6976 84.6504V71.0128Z" fill="white"/>
<path d="M63.9033 90.8487C64.5883 91.5317 65.6972 91.53 66.3802 90.8451C67.0631 90.1601 67.0615 89.0512 66.3765 88.3682L62.1604 84.1644C61.4754 83.4814 60.3665 83.4831 59.6835 84.168C59.0006 84.853 59.0022 85.9619 59.6872 86.6449L63.9033 90.8487Z" fill="white"/>
<path d="M76.1812 87.1436C77.1485 87.1436 77.9326 86.3594 77.9326 85.3921C77.9326 84.4249 77.1485 83.6407 76.1812 83.6407H37.123C36.1557 83.6407 35.3716 84.4249 35.3716 85.3921C35.3716 86.3594 36.1557 87.1436 37.123 87.1436H76.1812Z" fill="white"/>
<path d="M15.9556 87.1436C16.9229 87.1436 17.707 86.3594 17.707 85.3921C17.707 84.4249 16.9229 83.6407 15.9556 83.6407H8.45063C7.48335 83.6407 6.69922 84.4249 6.69922 85.3921C6.69922 86.3594 7.48335 87.1436 8.45063 87.1436H15.9556Z" fill="white"/>
<path fill-rule="evenodd" clip-rule="evenodd" d="M121.548 14.0617C123.564 14.0617 125.272 14.7617 126.672 16.1897C128.1 17.5897 128.8 19.3257 128.8 21.3697C128.8 23.4137 128.1 25.1497 126.672 26.5777C125.272 27.9777 123.564 28.6777 121.548 28.6777C118.888 28.6777 116.676 27.3337 115.528 25.1217V28.3697H114.128V8.76969H115.528V17.6177C116.676 15.4057 118.888 14.0617 121.548 14.0617ZM117.236 25.5977C118.384 26.7457 119.812 27.3337 121.464 27.3337C123.116 27.3337 124.516 26.7457 125.664 25.5977C126.812 24.4497 127.4 23.0217 127.4 21.3697C127.4 19.7177 126.812 18.2897 125.664 17.1417C124.516 15.9937 123.116 15.4057 121.464 15.4057C119.812 15.4057 118.384 15.9937 117.236 17.1417C116.088 18.2897 115.528 19.7177 115.528 21.3697C115.528 23.0217 116.088 24.4497 117.236 25.5977ZM131.768 9.86169C131.712 11.3177 134.064 11.3177 134.008 9.86169C134.064 8.46169 131.712 8.46169 131.768 9.86169ZM133.588 28.3697V14.3697H132.188V28.3697H133.588ZM139.3 28.3697V7.92969H137.9V28.3697H139.3Z" fill="white"/>
<path fill-rule="evenodd" clip-rule="evenodd" d="M123.677 43.6857V36.7697H127.877V56.3697H123.677V55.0537C122.697 56.2017 121.297 56.7617 119.504 56.7617C117.656 56.7617 116.089 56.0617 114.773 54.6337C113.457 53.2057 112.812 51.4417 112.812 49.3697C112.812 47.2977 113.457 45.5617 114.773 44.1337C116.089 42.7057 117.656 41.9777 119.504 41.9777C121.297 41.9777 122.697 42.5377 123.677 43.6857ZM117.936 51.8617C118.552 52.4777 119.365 52.7857 120.344 52.7857C121.325 52.7857 122.136 52.4777 122.752 51.8617C123.368 51.2457 123.677 50.4057 123.677 49.3697C123.677 48.3337 123.368 47.4937 122.752 46.8777C122.136 46.2617 121.325 45.9537 120.344 45.9537C119.365 45.9537 118.552 46.2617 117.936 46.8777C117.32 47.4937 117.012 48.3337 117.012 49.3697C117.012 50.4057 117.32 51.2457 117.936 51.8617ZM134.82 40.4097C135.828 39.4017 135.828 37.8337 134.82 36.8537C133.84 35.8457 132.272 35.8457 131.264 36.8537C130.284 37.8337 130.284 39.4017 131.264 40.4097C132.272 41.3897 133.84 41.3897 134.82 40.4097ZM135.156 56.3697V42.3697H130.956V56.3697H135.156ZM142.437 56.3697V35.9297H138.236V56.3697H142.437Z" fill="white"/>
<path fill-rule="evenodd" clip-rule="evenodd" d="M129.416 62.8618C129.36 64.3178 131.712 64.3178 131.656 62.8618C131.712 61.4618 129.36 61.4618 129.416 62.8618ZM120.54 80.3338C122.78 80.3338 124.656 79.2138 125.58 77.4218L126.756 78.1218C125.72 80.1098 123.62 81.4538 121.156 81.6498V82.9378C122.64 83.1338 123.704 83.8898 123.704 85.0378C123.704 86.8018 121.884 87.5578 118.244 87.2778V86.1298C121.016 86.3818 122.472 85.9618 122.472 85.0378C122.472 84.2258 121.604 83.8338 119.896 83.8338V81.6498C117.964 81.5098 116.34 80.7538 115.08 79.3818C113.82 78.0098 113.176 76.3298 113.176 74.3698C113.176 72.2978 113.876 70.5618 115.276 69.1618C116.676 67.7618 118.44 67.0618 120.54 67.0618C123.256 67.0618 125.636 68.4338 126.644 70.6458L125.496 71.3178C124.684 69.5258 122.78 68.4058 120.54 68.4058C118.86 68.4058 117.46 68.9938 116.312 70.1418C115.164 71.2898 114.604 72.6898 114.604 74.3698C114.604 76.0498 115.164 77.4778 116.312 78.6258C117.46 79.7738 118.86 80.3338 120.54 80.3338ZM131.236 67.3698H129.836V81.3698H131.236V67.3698ZM136.948 70.0298C137.956 68.0418 139.636 67.0618 141.96 67.0618C145.292 67.0618 147.392 69.2738 147.392 72.6618V81.3698H145.964V72.6618C145.964 70.0578 144.452 68.4058 141.848 68.4058C138.964 68.4058 136.948 70.3658 136.948 73.9778V81.3698H135.548V67.3698H136.948V70.0298Z" fill="white"/>
</svg>
